<mxfile host="app.diagrams.net" modified="2021-11-29T02:05:23.467Z" agent="5.0 (Macintosh; Intel Mac OS X 10_15_7) AppleWebKit/537.36 (KHTML, like Gecko) Chrome/96.0.4664.55 Safari/537.36" etag="5drl-X_gopFwVx6r36eW" version="15.8.6" type="github" pages="2">
  <diagram id="U6JIKXwPDBJGhzgOmtue" name="Page-1">
    <mxGraphModel dx="2066" dy="1186" grid="1" gridSize="20" guides="1" tooltips="1" connect="1" arrows="1" fold="1" page="1" pageScale="1" pageWidth="850" pageHeight="1100" math="0" shadow="0">
      <root>
        <mxCell id="0" />
        <mxCell id="1" parent="0" />
        <mxCell id="8uIvGiVVAIgTVFCe8Fxm-2" value="Museums around the world" style="rounded=0;whiteSpace=wrap;html=1;strokeWidth=5;fontSize=20;" parent="1" vertex="1">
          <mxGeometry x="160" y="80" width="540" height="60" as="geometry" />
        </mxCell>
        <mxCell id="8uIvGiVVAIgTVFCe8Fxm-3" value="America" style="rounded=0;whiteSpace=wrap;html=1;fontSize=20;strokeWidth=5;" parent="1" vertex="1">
          <mxGeometry x="40" y="240" width="120" height="60" as="geometry" />
        </mxCell>
        <mxCell id="8uIvGiVVAIgTVFCe8Fxm-4" value="Europe" style="rounded=0;whiteSpace=wrap;html=1;fontSize=20;strokeWidth=5;" parent="1" vertex="1">
          <mxGeometry x="200" y="240" width="120" height="60" as="geometry" />
        </mxCell>
        <mxCell id="8uIvGiVVAIgTVFCe8Fxm-5" value="Asia" style="rounded=0;whiteSpace=wrap;html=1;fontSize=20;strokeWidth=5;" parent="1" vertex="1">
          <mxGeometry x="360" y="240" width="120" height="60" as="geometry" />
        </mxCell>
        <mxCell id="8uIvGiVVAIgTVFCe8Fxm-6" value="Oceania" style="rounded=0;whiteSpace=wrap;html=1;fontSize=20;strokeWidth=5;" parent="1" vertex="1">
          <mxGeometry x="520" y="240" width="120" height="60" as="geometry" />
        </mxCell>
        <mxCell id="8uIvGiVVAIgTVFCe8Fxm-7" value="Africa" style="rounded=0;whiteSpace=wrap;html=1;fontSize=20;strokeWidth=5;" parent="1" vertex="1">
          <mxGeometry x="680" y="240" width="120" height="60" as="geometry" />
        </mxCell>
        <mxCell id="8uIvGiVVAIgTVFCe8Fxm-8" value="Kenneth Cadena-Cajas&lt;br&gt;kc389@njit.edu" style="whiteSpace=wrap;html=1;aspect=fixed;fontSize=20;strokeWidth=5;" parent="1" vertex="1">
          <mxGeometry x="80" y="420" width="300" height="300" as="geometry" />
        </mxCell>
        <mxCell id="8uIvGiVVAIgTVFCe8Fxm-9" value="KC IS117 101 11/30/2021" style="rounded=0;whiteSpace=wrap;html=1;fontSize=20;strokeWidth=5;" parent="1" vertex="1">
          <mxGeometry x="60" y="980" width="560" height="60" as="geometry" />
        </mxCell>
      </root>
    </mxGraphModel>
  </diagram>
  <diagram id="wLj20kEeFqnuxwplv_1d" name="Page-2">
    <mxGraphModel dx="2066" dy="1186" grid="1" gridSize="10" guides="1" tooltips="1" connect="1" arrows="1" fold="1" page="1" pageScale="1" pageWidth="850" pageHeight="1100" math="0" shadow="0">
      <root>
        <mxCell id="UlYuMD4vkO-FiwdAxQB5-0" />
        <mxCell id="UlYuMD4vkO-FiwdAxQB5-1" parent="UlYuMD4vkO-FiwdAxQB5-0" />
        <mxCell id="UlYuMD4vkO-FiwdAxQB5-2" value="America" style="rounded=0;whiteSpace=wrap;html=1;fontSize=20;strokeWidth=5;" vertex="1" parent="UlYuMD4vkO-FiwdAxQB5-1">
          <mxGeometry x="50" y="60" width="230" height="60" as="geometry" />
        </mxCell>
        <mxCell id="UlYuMD4vkO-FiwdAxQB5-3" value="" style="html=1;shadow=0;dashed=0;align=center;verticalAlign=middle;shape=mxgraph.arrows2.arrow;dy=0.6;dx=40;direction=south;notch=0;fontSize=20;strokeWidth=5;" vertex="1" parent="UlYuMD4vkO-FiwdAxQB5-1">
          <mxGeometry x="130" y="120" width="70" height="100" as="geometry" />
        </mxCell>
        <mxCell id="UlYuMD4vkO-FiwdAxQB5-4" value="North America" style="rounded=0;whiteSpace=wrap;html=1;fontSize=20;strokeWidth=5;" vertex="1" parent="UlYuMD4vkO-FiwdAxQB5-1">
          <mxGeometry x="45" y="250" width="220" height="60" as="geometry" />
        </mxCell>
        <mxCell id="UlYuMD4vkO-FiwdAxQB5-5" value="" style="html=1;shadow=0;dashed=0;align=center;verticalAlign=middle;shape=mxgraph.arrows2.arrow;dy=0.6;dx=40;direction=south;notch=0;fontSize=20;strokeWidth=5;" vertex="1" parent="UlYuMD4vkO-FiwdAxQB5-1">
          <mxGeometry x="120" y="310" width="70" height="100" as="geometry" />
        </mxCell>
        <mxCell id="UlYuMD4vkO-FiwdAxQB5-6" value="Central America" style="rounded=0;whiteSpace=wrap;html=1;fontSize=20;strokeWidth=5;" vertex="1" parent="UlYuMD4vkO-FiwdAxQB5-1">
          <mxGeometry x="45" y="540" width="220" height="60" as="geometry" />
        </mxCell>
        <mxCell id="UlYuMD4vkO-FiwdAxQB5-7" value="" style="html=1;shadow=0;dashed=0;align=center;verticalAlign=middle;shape=mxgraph.arrows2.arrow;dy=0.6;dx=40;direction=south;notch=0;fontSize=20;strokeWidth=5;" vertex="1" parent="UlYuMD4vkO-FiwdAxQB5-1">
          <mxGeometry x="120" y="600" width="70" height="100" as="geometry" />
        </mxCell>
        <mxCell id="UlYuMD4vkO-FiwdAxQB5-8" value="South America" style="rounded=0;whiteSpace=wrap;html=1;fontSize=20;strokeWidth=5;" vertex="1" parent="UlYuMD4vkO-FiwdAxQB5-1">
          <mxGeometry x="45" y="810" width="220" height="70" as="geometry" />
        </mxCell>
        <mxCell id="UlYuMD4vkO-FiwdAxQB5-9" value="United States" style="rounded=0;whiteSpace=wrap;html=1;fontSize=20;strokeWidth=5;" vertex="1" parent="UlYuMD4vkO-FiwdAxQB5-1">
          <mxGeometry x="310" y="200" width="145" height="40" as="geometry" />
        </mxCell>
        <mxCell id="UlYuMD4vkO-FiwdAxQB5-10" value="Canada" style="rounded=0;whiteSpace=wrap;html=1;fontSize=20;strokeWidth=5;" vertex="1" parent="UlYuMD4vkO-FiwdAxQB5-1">
          <mxGeometry x="310" y="280" width="150" height="40" as="geometry" />
        </mxCell>
        <mxCell id="UlYuMD4vkO-FiwdAxQB5-11" value="Mexico" style="rounded=0;whiteSpace=wrap;html=1;fontSize=20;strokeWidth=5;" vertex="1" parent="UlYuMD4vkO-FiwdAxQB5-1">
          <mxGeometry x="307.5" y="360" width="150" height="50" as="geometry" />
        </mxCell>
        <mxCell id="UlYuMD4vkO-FiwdAxQB5-12" style="edgeStyle=orthogonalEdgeStyle;rounded=0;orthogonalLoop=1;jettySize=auto;html=1;exitX=0.5;exitY=1;exitDx=0;exitDy=0;fontSize=20;" edge="1" parent="UlYuMD4vkO-FiwdAxQB5-1" source="UlYuMD4vkO-FiwdAxQB5-10">
          <mxGeometry relative="1" as="geometry">
            <mxPoint x="385" y="320" as="targetPoint" />
          </mxGeometry>
        </mxCell>
        <mxCell id="UlYuMD4vkO-FiwdAxQB5-13" style="edgeStyle=orthogonalEdgeStyle;rounded=0;orthogonalLoop=1;jettySize=auto;html=1;exitX=0.5;exitY=1;exitDx=0;exitDy=0;fontSize=20;" edge="1" parent="UlYuMD4vkO-FiwdAxQB5-1" source="UlYuMD4vkO-FiwdAxQB5-11">
          <mxGeometry relative="1" as="geometry">
            <mxPoint x="385" y="410" as="targetPoint" />
          </mxGeometry>
        </mxCell>
        <mxCell id="UlYuMD4vkO-FiwdAxQB5-14" value="Costa Rica" style="rounded=0;whiteSpace=wrap;html=1;fontSize=20;strokeWidth=5;" vertex="1" parent="UlYuMD4vkO-FiwdAxQB5-1">
          <mxGeometry x="305" y="490" width="120" height="30" as="geometry" />
        </mxCell>
        <mxCell id="UlYuMD4vkO-FiwdAxQB5-15" value="Panama" style="rounded=0;whiteSpace=wrap;html=1;fontSize=20;strokeWidth=5;" vertex="1" parent="UlYuMD4vkO-FiwdAxQB5-1">
          <mxGeometry x="305" y="530" width="120" height="30" as="geometry" />
        </mxCell>
        <mxCell id="UlYuMD4vkO-FiwdAxQB5-16" value="El Salvador" style="rounded=0;whiteSpace=wrap;html=1;fontSize=20;strokeWidth=5;" vertex="1" parent="UlYuMD4vkO-FiwdAxQB5-1">
          <mxGeometry x="305" y="570" width="120" height="30" as="geometry" />
        </mxCell>
        <mxCell id="UlYuMD4vkO-FiwdAxQB5-17" value="Honduras" style="rounded=0;whiteSpace=wrap;html=1;fontSize=20;strokeWidth=5;" vertex="1" parent="UlYuMD4vkO-FiwdAxQB5-1">
          <mxGeometry x="305" y="610" width="120" height="30" as="geometry" />
        </mxCell>
        <mxCell id="UlYuMD4vkO-FiwdAxQB5-18" value="Nicaragua" style="rounded=0;whiteSpace=wrap;html=1;fontSize=20;strokeWidth=5;" vertex="1" parent="UlYuMD4vkO-FiwdAxQB5-1">
          <mxGeometry x="305" y="650" width="120" height="30" as="geometry" />
        </mxCell>
        <mxCell id="UlYuMD4vkO-FiwdAxQB5-19" value="Guatemala" style="rounded=0;whiteSpace=wrap;html=1;fontSize=20;strokeWidth=5;" vertex="1" parent="UlYuMD4vkO-FiwdAxQB5-1">
          <mxGeometry x="440" y="490" width="120" height="30" as="geometry" />
        </mxCell>
        <mxCell id="UlYuMD4vkO-FiwdAxQB5-20" value="Belize" style="rounded=0;whiteSpace=wrap;html=1;fontSize=20;strokeWidth=5;" vertex="1" parent="UlYuMD4vkO-FiwdAxQB5-1">
          <mxGeometry x="440" y="530" width="120" height="30" as="geometry" />
        </mxCell>
        <mxCell id="UlYuMD4vkO-FiwdAxQB5-21" value="Argentina" style="rounded=0;whiteSpace=wrap;html=1;fontSize=20;strokeWidth=5;" vertex="1" parent="UlYuMD4vkO-FiwdAxQB5-1">
          <mxGeometry x="290" y="830" width="120" height="40" as="geometry" />
        </mxCell>
        <mxCell id="UlYuMD4vkO-FiwdAxQB5-22" value="Brazil" style="rounded=0;whiteSpace=wrap;html=1;fontSize=20;strokeWidth=5;" vertex="1" parent="UlYuMD4vkO-FiwdAxQB5-1">
          <mxGeometry x="290" y="770" width="120" height="40" as="geometry" />
        </mxCell>
        <mxCell id="UlYuMD4vkO-FiwdAxQB5-23" value="Chile" style="rounded=0;whiteSpace=wrap;html=1;fontSize=20;strokeWidth=5;" vertex="1" parent="UlYuMD4vkO-FiwdAxQB5-1">
          <mxGeometry x="290" y="890" width="120" height="40" as="geometry" />
        </mxCell>
        <mxCell id="UlYuMD4vkO-FiwdAxQB5-24" value="Uruguay" style="rounded=0;whiteSpace=wrap;html=1;fontSize=20;strokeWidth=5;" vertex="1" parent="UlYuMD4vkO-FiwdAxQB5-1">
          <mxGeometry x="290" y="940" width="120" height="40" as="geometry" />
        </mxCell>
        <mxCell id="UlYuMD4vkO-FiwdAxQB5-25" value="Bolivia" style="rounded=0;whiteSpace=wrap;html=1;fontSize=20;strokeWidth=5;" vertex="1" parent="UlYuMD4vkO-FiwdAxQB5-1">
          <mxGeometry x="290" y="1000" width="120" height="40" as="geometry" />
        </mxCell>
        <mxCell id="UlYuMD4vkO-FiwdAxQB5-26" value="Venezuela" style="rounded=0;whiteSpace=wrap;html=1;fontSize=20;strokeWidth=5;" vertex="1" parent="UlYuMD4vkO-FiwdAxQB5-1">
          <mxGeometry x="440" y="770" width="120" height="40" as="geometry" />
        </mxCell>
        <mxCell id="UlYuMD4vkO-FiwdAxQB5-27" value="Colombia" style="rounded=0;whiteSpace=wrap;html=1;fontSize=20;strokeWidth=5;" vertex="1" parent="UlYuMD4vkO-FiwdAxQB5-1">
          <mxGeometry x="440" y="830" width="120" height="40" as="geometry" />
        </mxCell>
        <mxCell id="UlYuMD4vkO-FiwdAxQB5-28" value="Peru" style="rounded=0;whiteSpace=wrap;html=1;fontSize=20;strokeWidth=5;" vertex="1" parent="UlYuMD4vkO-FiwdAxQB5-1">
          <mxGeometry x="440" y="890" width="120" height="40" as="geometry" />
        </mxCell>
        <mxCell id="UlYuMD4vkO-FiwdAxQB5-29" value="Paraguay" style="rounded=0;whiteSpace=wrap;html=1;fontSize=20;strokeWidth=5;" vertex="1" parent="UlYuMD4vkO-FiwdAxQB5-1">
          <mxGeometry x="440" y="940" width="120" height="40" as="geometry" />
        </mxCell>
        <mxCell id="UlYuMD4vkO-FiwdAxQB5-30" value="Ecuador" style="rounded=0;whiteSpace=wrap;html=1;fontSize=20;strokeWidth=5;" vertex="1" parent="UlYuMD4vkO-FiwdAxQB5-1">
          <mxGeometry x="440" y="1000" width="120" height="40" as="geometry" />
        </mxCell>
      </root>
    </mxGraphModel>
  </diagram>
</mxfile>
